<svg width="166" height="183" viewBox="0 0 166 183" fill="none" xmlns="http://www.w3.org/2000/svg">
<path d="M144.689 146.592L81.9216 177.681C81.407 177.936 80.783 177.702 80.5479 177.178C74.732 164.219 66.6948 158.944 62.7654 157.693C62.3479 157.561 61.9072 157.61 61.507 157.788C52.398 161.843 34.4273 168.556 30.7673 164.946C26.0876 160.331 27.4186 155.336 27.828 153.128C28.0929 151.7 27.8843 149.968 27.6683 148.885C27.5839 148.461 27.3377 148.093 26.9974 147.827C24.939 146.22 21.4467 143.563 20.6201 143.215C19.7184 142.836 19.8116 141.993 19.9709 141.619C20.4602 140.679 21.5413 138.683 21.9511 138.221C22.1247 138.025 22.1655 137.7 22.1383 137.351C22.0718 136.496 21.3502 135.888 20.5531 135.573C19.1623 135.022 17.4144 134.244 16.7249 133.64C16.5872 133.519 16.4722 133.403 16.3769 133.293C15.7779 132.6 16.2295 131.599 16.5315 130.734C17.3682 128.339 18.557 124.974 18.8748 124.229C19.2572 123.332 18.8971 121.681 18.6693 120.968C15.2423 118.82 8.16282 114.428 7.26113 114.048C6.35943 113.669 6.45263 112.826 6.61194 112.452L21.8813 78.4265C22.241 77.6251 22.0355 76.6828 21.375 76.1037L16.1436 71.518C15.7433 71.1671 15.4976 70.6875 15.4768 70.1556C14.6963 50.2115 29.841 7.32851 85.9286 4.33181C131.419 1.90129 150.288 27.3747 154.035 40.4152C157.725 49.64 162.668 72.9355 152.918 92.3193C143.395 111.251 143.783 135.213 145.239 145.55C145.3 145.982 145.08 146.399 144.689 146.592Z" fill="#4E42D4"/>
<path d="M81.6297 107.851C83.4795 110.136 85.3354 111.178 86.6502 111.584C87.6772 111.901 88.8118 111.904 89.8551 111.646C91.2897 111.291 93.1471 110.244 94.83 107.752C94.8747 107.686 94.8275 107.596 94.7477 107.597L81.7054 107.688C81.6222 107.689 81.5774 107.786 81.6297 107.851Z" fill="white"/>
<path d="M99.9336 103.427L76.4441 103.591C76.3758 103.592 76.3281 103.659 76.3501 103.724L77.3371 106.617C77.351 106.658 77.3894 106.685 77.4324 106.685L98.9886 106.534C99.0316 106.533 99.0697 106.506 99.083 106.465L100.029 103.558C100.051 103.493 100.002 103.426 99.9336 103.427Z" fill="white"/>
<path d="M75.2641 102.466L75.2366 98.5327C75.2362 98.4775 75.2806 98.4324 75.3358 98.432L100.97 98.2527C101.025 98.2523 101.07 98.2968 101.07 98.352L101.098 102.285C101.098 102.341 101.054 102.386 100.998 102.386L75.3648 102.565C75.3095 102.566 75.2644 102.521 75.2641 102.466Z" fill="white"/>
<path d="M75.2076 94.3993L75.2279 97.2994C75.2283 97.3546 75.2734 97.399 75.3286 97.3986L100.962 97.2194C101.018 97.219 101.062 97.1739 101.062 97.1187L101.041 94.2186C101.041 94.1634 100.996 94.1189 100.941 94.1193L75.3069 94.2986C75.2517 94.299 75.2073 94.3441 75.2076 94.3993Z" fill="white"/>
<path d="M101.395 93.0827L75.1467 93.2663C75.4594 89.9261 74.7047 81.6562 69.3894 74.3927C68.9491 73.7911 68.5333 73.1439 68.2241 72.4657C58.1355 50.3357 71.2682 40.0415 82.5074 36.5255C85.9937 35.4348 89.7419 35.432 93.2746 36.3614C116.684 42.5197 112.331 64.9187 106.506 73.2355C101.516 80.3608 101.02 89.4359 101.395 93.0827Z" fill="white"/>
<rect x="89.6181" y="31.581" width="3.48241" height="15.9204" rx="1.74121" transform="rotate(179.599 89.6181 31.581)" fill="white"/>
<rect x="114.274" y="65.4732" width="3.48241" height="15.9204" rx="1.74121" transform="rotate(-90.4008 114.274 65.4732)" fill="white"/>
<rect x="46.0734" y="65.9502" width="3.48241" height="15.9204" rx="1.74121" transform="rotate(-90.4008 46.0734 65.9502)" fill="white"/>
<rect x="52.0351" y="31.8198" width="3.48241" height="15.9204" rx="1.74121" transform="rotate(-45.4008 52.0351 31.8198)" fill="white"/>
<rect x="107.142" y="80.004" width="3.48241" height="15.9204" rx="1.74121" transform="rotate(-45.4008 107.142 80.004)" fill="white"/>
<rect x="111.41" y="42.6621" width="3.48241" height="15.9204" rx="1.74121" transform="rotate(-135.401 111.41 42.6621)" fill="white"/>
<rect x="56.9826" y="91.6126" width="3.48241" height="15.9204" rx="1.74121" transform="rotate(-135.401 56.9826 91.6126)" fill="white"/>
</svg>
